<?xml version="1.0" encoding="utf-8"?>
<!-- Generator: Adobe Illustrator 23.0.3, SVG Export Plug-In . SVG Version: 6.00 Build 0)  -->
<svg version="1.1" xmlns="http://www.w3.org/2000/svg" xmlns:xlink="http://www.w3.org/1999/xlink" x="0px" y="0px"
	 viewBox="0 0 313 109" style="enable-background:new 0 0 313 109;" xml:space="preserve">
<style type="text/css">
	.st0{font-family:'AcuminPro-Regular';}
	.st1{font-size:36px;}
	.st2{stroke:#000000;stroke-miterlimit:10;}
	.st3{font-size:72px;}
	.st4{letter-spacing:1;}
</style>
<g id="Layer_1">
	<text transform="matrix(1 0 0 1 5.4839 38.5483)"><tspan x="0" y="0" class="st0 st1">TabMate</tspan><tspan x="0" y="59" class="st2 st0 st3 st4">Rebinder</tspan></text>
</g>
<g id="Layer_2">
	<g>
		<path d="M13.83,16.34H5.77V13.5h19.51v2.84h-8.1v22.21h-3.35V16.34z"/>
		<path d="M39.32,34.55c0,1.69,0.14,3.46,0.25,4h-3.02c-0.14-0.4-0.25-1.26-0.29-2.38c-0.65,1.19-2.12,2.81-5.65,2.81
			c-4.32,0-6.16-2.81-6.16-5.58c0-4.07,3.2-5.94,8.64-5.94h3.1v-1.55c0-1.62-0.5-3.56-3.92-3.56c-3.02,0-3.56,1.51-3.89,2.92h-3.06
			c0.25-2.52,1.8-5.4,7.06-5.4c4.46,0,6.95,1.84,6.95,5.98V34.55z M36.23,29.66h-2.95c-3.64,0-5.58,1.01-5.58,3.56
			c0,1.91,1.3,3.28,3.56,3.28c4.39,0,4.97-2.95,4.97-6.26V29.66z"/>
		<path d="M45.66,12.13h3.17v10.76c0.79-1.55,2.48-3.02,5.8-3.02c4.61,0,7.49,3.78,7.49,9.18c0,5.54-2.81,9.94-7.95,9.94
			c-2.92,0-4.46-1.08-5.36-2.84c0,0.94-0.07,1.91-0.14,2.41h-3.02c0.04-2.05,0.04-4.1,0.04-6.12V12.13z M53.9,22.53
			c-3.89,0-5.25,2.59-5.25,6.95c0,3.82,1.22,6.84,5.08,6.84c3.24,0,5.15-2.77,5.15-7.2C58.87,25.16,57.07,22.53,53.9,22.53z"/>
		<path d="M89.11,27.89c0-4.68,0.07-9.39,0.18-12.02h-0.14c-1.08,4.07-5.11,14.79-7.99,22.68h-2.99
			c-2.16-6.41-6.37-18.47-7.49-22.75h-0.11c0.18,2.92,0.29,8.46,0.29,12.78v9.97h-3.13V13.5h4.93c2.84,7.77,6.33,17.82,7.2,20.99
			h0.04c0.61-2.41,4.72-13.39,7.67-20.99h4.79v25.05h-3.24V27.89z"/>
		<path d="M112.29,34.55c0,1.69,0.14,3.46,0.25,4h-3.02c-0.14-0.4-0.25-1.26-0.29-2.38c-0.65,1.19-2.12,2.81-5.65,2.81
			c-4.32,0-6.16-2.81-6.16-5.58c0-4.07,3.2-5.94,8.64-5.94h3.1v-1.55c0-1.62-0.5-3.56-3.92-3.56c-3.02,0-3.56,1.51-3.89,2.92h-3.06
			c0.25-2.52,1.8-5.4,7.05-5.4c4.46,0,6.95,1.84,6.95,5.98V34.55z M109.2,29.66h-2.95c-3.64,0-5.58,1.01-5.58,3.56
			c0,1.91,1.3,3.28,3.56,3.28c4.39,0,4.97-2.95,4.97-6.26V29.66z"/>
		<path d="M116.04,20.3h3.17v-5.4h3.13v5.4h4.03v2.56h-4.03v10.69c0,1.8,0.43,2.7,2.09,2.7c0.43,0,1.08-0.04,1.58-0.14v2.38
			c-0.76,0.29-1.84,0.32-2.74,0.32c-2.84,0-4.07-1.48-4.07-4.5V22.85h-3.17V20.3z"/>
		<path d="M132.38,29.98c0.04,3.71,1.91,6.37,5,6.37c2.88,0,3.82-1.51,4.39-2.84h3.2c-0.72,2.34-2.7,5.47-7.7,5.47
			c-5.72,0-8.06-4.68-8.06-9.36c0-5.44,2.74-9.75,8.28-9.75c5.9,0,7.81,4.72,7.81,8.6c0,0.58,0,1.04-0.04,1.51H132.38z M142.1,27.79
			c-0.04-3.02-1.55-5.44-4.64-5.44c-3.24,0-4.64,2.23-4.97,5.44H142.1z"/>
		<path class="st2" d="M18.66,75.51v22.03h-6.55V47.43h19.59c10.3,0,15.77,5.62,15.77,13.39c0,6.55-3.74,10.51-8.57,11.81
			c4.1,1.08,7.63,4.18,7.63,12.82v2.16c0,3.46-0.14,7.85,0.72,9.94h-6.48c-0.94-2.16-0.86-6.05-0.86-10.8v-1.01
			c0-7.13-2.02-10.22-11.02-10.22H18.66z M18.66,69.9h10.87c7.7,0,11.02-2.88,11.02-8.5c0-5.33-3.46-8.35-10.22-8.35H18.66V69.9z"/>
		<path class="st2" d="M62.65,80.41c0.07,7.42,3.82,12.75,10.01,12.75c5.76,0,7.63-3.02,8.78-5.69h6.41
			c-1.44,4.68-5.4,10.95-15.41,10.95c-11.45,0-16.13-9.36-16.13-18.72c0-10.87,5.47-19.51,16.56-19.51
			c11.81,0,15.63,9.43,15.63,17.21c0,1.15,0,2.09-0.07,3.02H62.65z M82.09,76.02c-0.07-6.05-3.1-10.87-9.29-10.87
			c-6.48,0-9.29,4.46-9.94,10.87H82.09z"/>
		<path class="st2" d="M98.58,44.7h6.34v21.53c1.58-3.1,4.97-6.05,11.59-6.05c9.22,0,14.98,7.56,14.98,18.36
			c0,11.09-5.62,19.87-15.91,19.87c-5.83,0-8.93-2.16-10.73-5.69c0,1.87-0.14,3.82-0.29,4.82h-6.05c0.07-4.11,0.07-8.21,0.07-12.24
			V44.7z M115.07,65.51c-7.78,0-10.51,5.18-10.51,13.9c0,7.63,2.45,13.68,10.15,13.68c6.48,0,10.3-5.54,10.3-14.4
			C125.01,70.76,121.41,65.51,115.07,65.51z"/>
		<path class="st2" d="M141.71,52.54V44.7h6.34v7.85H141.71z M141.71,61.04h6.34v36.51h-6.34V61.04z"/>
		<path class="st2" d="M160.57,70.26c0-3.17,0-6.41-0.07-9.22h6.12c0.22,1.08,0.29,4.9,0.29,5.98c1.44-3.1,4.39-6.84,11.45-6.84
			c6.91,0,12.24,4.18,12.24,13.9v23.47h-6.34V74.87c0-5.54-2.16-9.22-7.71-9.22c-6.91,0-9.65,5.26-9.65,12.6v19.3h-6.34V70.26z"/>
		<path class="st2" d="M233.51,44.7v42.56c0,3.38,0,6.77,0.07,10.3h-6.05c-0.22-0.94-0.36-3.74-0.36-5.19
			c-1.8,3.82-5.47,6.05-11.45,6.05c-9.43,0-15.19-7.63-15.19-18.72c0-11.23,6.26-19.51,16.34-19.51c6.48,0,9.36,2.59,10.3,4.68V44.7
			H233.51z M217.02,93.08c8.5,0,10.44-6.34,10.44-14.33c0-8.14-1.73-13.25-9.94-13.25c-6.48,0-10.44,5.11-10.44,13.97
			C207.08,88.26,211.26,93.08,217.02,93.08z"/>
		<path class="st2" d="M249.78,80.41c0.07,7.42,3.82,12.75,10.01,12.75c5.76,0,7.63-3.02,8.79-5.69h6.41
			c-1.44,4.68-5.4,10.95-15.41,10.95c-11.45,0-16.13-9.36-16.13-18.72c0-10.87,5.47-19.51,16.56-19.51
			c11.81,0,15.63,9.43,15.63,17.21c0,1.15,0,2.09-0.07,3.02H249.78z M269.22,76.02c-0.07-6.05-3.1-10.87-9.29-10.87
			c-6.48,0-9.29,4.46-9.94,10.87H269.22z"/>
		<path class="st2" d="M285.49,70.98c0-5.11-0.07-7.99-0.07-9.94h6.19c0.07,1.01,0.22,3.89,0.22,7.42c1.87-4.9,6.19-8.14,12.24-8.28
			v6.26c-7.49,0.22-12.24,4.18-12.24,13.39v17.71h-6.34V70.98z"/>
	</g>
</g>
</svg>
